<?xml version="1.0" encoding="UTF-8"?>
<!DOCTYPE svg PUBLIC "-//W3C//DTD SVG 1.1//EN" "http://www.w3.org/Graphics/SVG/1.1/DTD/svg11.dtd">
<svg xmlns="http://www.w3.org/2000/svg" version="1.1" width="512px" height="512px" style="shape-rendering:geometricPrecision; text-rendering:geometricPrecision; image-rendering:optimizeQuality; fill-rule:evenodd; clip-rule:evenodd" xmlns:xlink="http://www.w3.org/1999/xlink">
<g><path style="opacity:0.998" fill="#4bae4f" d="M 232.5,-0.5 C 247.833,-0.5 263.167,-0.5 278.5,-0.5C 378.271,12.4486 449.438,64.4486 492,155.5C 502.136,180.379 508.636,206.046 511.5,232.5C 511.5,247.833 511.5,263.167 511.5,278.5C 498.551,378.271 446.551,449.438 355.5,492C 330.622,502.136 304.955,508.636 278.5,511.5C 263.167,511.5 247.833,511.5 232.5,511.5C 132.727,498.549 61.5605,446.549 19,355.5C 8.86392,330.621 2.36392,304.954 -0.5,278.5C -0.5,263.167 -0.5,247.833 -0.5,232.5C 12.4486,132.729 64.4486,61.5622 155.5,19C 180.379,8.86392 206.046,2.36392 232.5,-0.5 Z"/></g>
<g><path style="opacity:1" fill="#fefefe" d="M 287.5,122.5 C 287.5,156.167 287.5,189.833 287.5,223.5C 321.167,223.5 354.833,223.5 388.5,223.5C 391.675,223.84 393.841,225.507 395,228.5C 395.667,246.167 395.667,263.833 395,281.5C 394.272,285.061 392.106,287.061 388.5,287.5C 354.833,287.5 321.167,287.5 287.5,287.5C 287.5,321.167 287.5,354.833 287.5,388.5C 287.089,392.079 285.089,394.246 281.5,395C 263.833,395.667 246.167,395.667 228.5,395C 225.507,393.841 223.84,391.675 223.5,388.5C 223.5,354.833 223.5,321.167 223.5,287.5C 189.833,287.5 156.167,287.5 122.5,287.5C 118.921,287.089 116.754,285.089 116,281.5C 115.333,263.833 115.333,246.167 116,228.5C 117.159,225.507 119.325,223.84 122.5,223.5C 156.167,223.5 189.833,223.5 223.5,223.5C 223.5,189.833 223.5,156.167 223.5,122.5C 223.84,119.325 225.507,117.159 228.5,116C 246.5,115.333 264.5,115.333 282.5,116C 285.493,117.159 287.16,119.325 287.5,122.5 Z"/></g>
<g><path style="opacity:1" fill="#95cf97" d="M 223.5,122.5 C 223.5,156.167 223.5,189.833 223.5,223.5C 189.833,223.5 156.167,223.5 122.5,223.5C 155.662,222.502 188.996,222.168 222.5,222.5C 222.168,188.996 222.502,155.662 223.5,122.5 Z"/></g>
<g><path style="opacity:1" fill="#98d09a" d="M 287.5,122.5 C 288.498,155.662 288.832,188.996 288.5,222.5C 322.004,222.168 355.338,222.502 388.5,223.5C 354.833,223.5 321.167,223.5 287.5,223.5C 287.5,189.833 287.5,156.167 287.5,122.5 Z"/></g>
<g><path style="opacity:1" fill="#8ecc91" d="M 122.5,287.5 C 156.167,287.5 189.833,287.5 223.5,287.5C 223.5,321.167 223.5,354.833 223.5,388.5C 222.502,355.338 222.168,322.004 222.5,288.5C 188.996,288.832 155.662,288.498 122.5,287.5 Z"/></g>
<g><path style="opacity:1" fill="#92cd94" d="M 388.5,287.5 C 355.338,288.498 322.004,288.832 288.5,288.5C 288.832,322.004 288.498,355.338 287.5,388.5C 287.5,354.833 287.5,321.167 287.5,287.5C 321.167,287.5 354.833,287.5 388.5,287.5 Z"/></g>
</svg>
