<svg width="40" height="40" viewBox="0 0 40 40" fill="none" xmlns="http://www.w3.org/2000/svg">
<path d="M0 20C0 8.95431 8.95431 0 20 0C31.0457 0 40 8.95431 40 20C40 31.0457 31.0457 40 20 40C8.95431 40 0 31.0457 0 20Z" fill="#F44336" fill-opacity="0.1"/>
<g clip-path="url(#clip0_1_519)">
<path d="M20 11.6667C15.4 11.6667 11.6666 15.4001 11.6666 20.0001C11.6666 24.6001 15.4 28.3334 20 28.3334C24.6 28.3334 28.3333 24.6001 28.3333 20.0001C28.3333 15.4001 24.6 11.6667 20 11.6667ZM24.1666 20.8334H15.8333V19.1667H24.1666V20.8334Z" fill="#F44336"/>
</g>
<defs>
<clipPath id="clip0_1_519">
<rect width="20" height="20" fill="white" transform="translate(10 10)"/>
</clipPath>
</defs>
</svg>
